<?xml version="1.0" standalone="no"?>
<!DOCTYPE svg PUBLIC "-//W3C//DTD SVG 20010904//EN"
 "http://www.w3.org/TR/2001/REC-SVG-20010904/DTD/svg10.dtd">
<svg version="1.0" xmlns="http://www.w3.org/2000/svg"
 width="700.000000pt" height="700.000000pt" viewBox="0 0 700.000000 700.000000"
 preserveAspectRatio="xMidYMid meet">
<metadata>
Created by potrace 1.11, written by Peter Selinger 2001-2013
</metadata>
<g transform="translate(0.000000,700.000000) scale(0.100000,-0.100000)"
fill="#000000" stroke="none">
<path d="M2355 6823 c-175 -26 -350 -138 -493 -317 -60 -75 -63 -80 -124 -190
-135 -243 -212 -581 -211 -921 0 -85 12 -275 17 -284 2 -3 7 -28 10 -56 23
-173 105 -420 189 -570 69 -121 118 -187 206 -276 159 -159 325 -231 513 -223
86 4 93 5 178 34 271 91 510 393 625 786 63 215 80 344 80 604 0 302 -33 490
-130 740 -118 305 -328 548 -544 631 -103 40 -224 56 -316 42z"/>
<path d="M4405 6806 c-132 -37 -223 -92 -335 -205 -106 -107 -164 -190 -235
-336 -55 -113 -121 -302 -140 -404 -34 -182 -39 -234 -40 -451 0 -170 3 -227
20 -350 18 -136 89 -367 154 -504 133 -277 345 -484 561 -547 65 -19 75 -20
180 -21 112 -1 212 28 321 92 120 71 271 233 345 370 10 19 24 42 30 50 17 24
89 197 117 285 27 83 61 243 72 330 3 28 8 66 11 85 9 66 6 365 -6 455 -27
222 -92 449 -175 615 -41 81 -109 195 -126 210 -3 3 -13 16 -22 30 -55 81
-199 201 -302 253 -130 65 -291 81 -430 43z"/>
<path d="M666 4725 c-169 -49 -297 -181 -363 -376 -39 -118 -48 -177 -48 -339
0 -151 6 -201 40 -345 85 -357 306 -714 567 -913 263 -201 552 -246 753 -117
148 94 257 288 283 500 9 75 9 262 -1 333 -65 507 -396 1012 -786 1201 -47 23
-93 41 -102 41 -10 0 -20 4 -23 9 -7 11 -94 24 -178 26 -43 1 -93 -6 -142 -20z"/>
<path d="M6070 4734 c-312 -68 -627 -360 -814 -754 -71 -151 -109 -271 -151
-485 -13 -66 -13 -292 0 -370 21 -118 24 -131 46 -188 79 -202 225 -335 404
-368 556 -102 1212 709 1190 1471 -4 142 -9 178 -35 270 -78 266 -264 428
-500 434 -47 1 -110 -3 -140 -10z"/>
<path d="M3450 3389 c-188 -22 -331 -61 -470 -127 -140 -67 -203 -114 -340
-251 -280 -281 -583 -693 -972 -1321 -274 -444 -341 -608 -337 -825 5 -271
128 -475 355 -589 153 -77 275 -101 514 -101 162 0 216 5 309 30 118 30 319
120 387 171 66 51 259 123 370 139 140 20 187 22 394 20 185 -2 244 -7 330
-25 123 -25 234 -66 310 -114 126 -80 305 -158 447 -196 151 -41 470 -34 644
14 243 66 421 233 484 455 61 216 31 402 -106 671 -116 228 -459 761 -699
1085 -79 106 -240 317 -249 325 -4 3 -42 48 -86 100 -184 217 -301 323 -435
394 -93 49 -249 104 -345 121 -63 11 -85 14 -130 21 -65 9 -305 11 -375 3z"/>
</g>
</svg>
